<svg width="110" height="110" viewBox="0 0 110 110" fill="none" xmlns="http://www.w3.org/2000/svg">
<rect width="110" height="110" rx="26" fill="#133A4E"/>
<g clip-path="url(#clip0_2_131)">
<path d="M55 87C72.6731 87 87 72.6731 87 55C87 37.3269 72.6731 23 55 23C37.3269 23 23 37.3269 23 55C23 72.6731 37.3269 87 55 87Z" fill="#47C8C8"/>
<path d="M50.59 38.1525C52.1025 36.6825 53.44 35.38 55.0325 33.83C56.525 35.3625 57.825 36.6975 59.3175 38.2275C58.0875 39.675 56.99 40.9675 55.6325 42.5675C58.8325 44.4275 62.2325 46.6475 65.65 48.635V42.82H71.6525C71.6525 44.7725 71.675 46.99 71.675 49.1525C66.25 49.1525 70.2625 49.2175 66.115 49.2175C66.115 53.0575 66.225 57.1 66.225 61.095H71.6725V67.14H65.6875V61.67C62.3825 63.56 58.9225 65.505 55.5925 67.4075C56.875 68.8825 57.9425 70.105 59.3175 71.685C57.975 73.1 56.6525 74.4925 54.9775 76.2575C53.4875 74.66 52.175 73.2525 50.6975 71.6675C51.9425 70.2425 53.0575 68.9675 54.4075 67.425C51.095 65.5225 47.6575 63.5875 44.315 61.6675V67.2225H38.3025V61.1075H43.81C43.81 57.2175 43.79 52.885 43.79 48.8925L38.2775 48.8725V42.8175H44.3325C44.3325 48.2475 44.3325 43.5375 44.3325 48.1275C47.605 46.275 51.005 44.5475 54.3725 42.64C53.115 41.15 52.0275 39.86 50.585 38.1525H50.59Z" fill="#FBFDFD"/>
<path d="M47.115 58.1975V50.1826C50.2525 48.3926 50.2525 48.48 53.9325 46.425L55.44 48.4075C49.78 51.6125 55.6175 48.335 49.78 51.6125V58.1975H47.115Z" fill="#64CFCF"/>
</g>
<defs>
<clipPath id="clip0_2_131">
<rect width="64" height="64" fill="white" transform="translate(23 23)"/>
</clipPath>
</defs>
</svg>
