<svg width="110" height="110" viewBox="0 0 110 110" fill="none" xmlns="http://www.w3.org/2000/svg">
<rect width="110" height="110" rx="26" fill="#4A3228"/>
<g clip-path="url(#clip0_2_121)">
<path d="M55 87C72.6731 87 87 72.6731 87 55C87 37.3269 72.6731 23 55 23C37.3269 23 23 37.3269 23 55C23 72.6731 37.3269 87 55 87Z" fill="#A4733C"/>
<path d="M54.5574 69.21C53.9274 69.0175 52.9574 68.795 52.0424 68.43C47.8099 66.7375 43.5924 65.01 39.3724 63.2825C38.9924 63.1275 38.6374 62.8975 38.2799 62.69C36.4249 61.615 36.3549 60.3875 38.2299 59.475C43.3749 56.9725 48.7149 54.945 54.1324 53.1175C54.7974 52.8925 55.4199 52.9675 56.0749 53.19C61.3324 54.975 66.5074 56.96 71.5199 59.3525C71.7449 59.46 71.9974 59.5225 72.1974 59.66C73.3999 60.4975 73.4424 61.69 72.1774 62.44C71.0424 63.1125 69.7974 63.605 68.5774 64.1225C64.5374 65.8375 60.4924 67.5475 56.3274 68.9475C55.8499 69.1075 55.3974 69.29 54.5549 69.2075L54.5574 69.21Z" fill="white"/>
<path d="M54.89 75.4825C53.84 75.4825 50.86 74.4425 48.9325 73.73C45.2775 72.3775 41.675 70.86 38.125 69.24C37.9575 69.165 37.235 68.7425 36.8275 68.505C35.5675 67.78 35.475 67.57 36.185 66.1925C36.66 65.2725 36.86 65.365 38.1225 65.945C42.125 67.775 46.2175 69.3625 50.3 70.9825C54.3825 72.6025 55.5725 72.7 59.68 70.9925C63.6575 69.34 67.6 67.6075 71.63 66.06C72.8475 65.5925 73.35 65.095 73.915 66.3925C74.3675 67.43 74.8725 67.775 72.975 68.6025C68.79 70.43 64.7075 72.465 60.385 73.9425C58.585 74.5575 56.0775 75.48 54.89 75.48V75.4825Z" fill="white"/>
<path d="M46.3975 40.7975C46.3975 43.1709 45.2225 44.3567 42.8725 44.355C42.54 44.355 42.21 44.36 41.8775 44.35C39.6825 44.28 39.5625 44.155 39.4975 41.8575C39.4125 38.8509 40.8858 37.3817 43.9175 37.45C46.2775 37.505 46.3575 37.585 46.3975 40.05C46.4025 40.2975 46.3975 40.5475 46.3975 40.795V40.7975Z" fill="white"/>
<path d="M69.325 44.93C69.29 47.4725 69.24 47.515 66.3275 47.4925C63.8275 47.4725 63.7675 47.4 63.7925 44.4775C63.815 41.9325 63.88 41.875 66.78 41.9175C69.315 41.955 69.365 42.0125 69.325 44.93Z" fill="white"/>
<path d="M52.845 47.8851C52.855 49.9076 52.585 50.1776 50.5625 50.1801C48.515 50.1801 48.1975 49.8776 48.2075 47.9326C48.2175 46.0326 48.455 45.8301 50.6525 45.8426C52.6925 45.8551 52.8375 45.9901 52.8475 47.8826L52.845 47.8851Z" fill="white"/>
</g>
<defs>
<clipPath id="clip0_2_121">
<rect width="64" height="64" fill="white" transform="translate(23 23)"/>
</clipPath>
</defs>
</svg>
