<svg width="110" height="110" viewBox="0 0 110 110" fill="none" xmlns="http://www.w3.org/2000/svg">
<rect width="110" height="110" rx="26" fill="#253D30"/>
<g clip-path="url(#clip0_4_3)">
<path d="M55 87C72.6731 87 87 72.6731 87 55C87 37.3269 72.6731 23 55 23C37.3269 23 23 37.3269 23 55C23 72.6731 37.3269 87 55 87Z" fill="#9F9F28"/>
<path d="M37.46 59.1775C37.4575 54.8275 37.86 51.965 39.0575 49.2575C40.01 47.1 41.0925 46.7275 42.8525 48.1225C45.2425 50.015 47.885 51.3 50.8525 51.96C52.4525 52.3175 53.065 53.255 52.535 54.895C50.7275 60.4925 48.9125 66.09 47.185 71.7125C46.59 73.645 45.695 73.58 44.315 72.53C39.425 68.8075 37.5 63.725 37.46 59.1775Z" fill="white"/>
<path d="M72.545 58.07C72.495 63.6775 70.5975 68.475 66.2425 72.1325C64.115 73.9175 63.455 73.715 62.645 71.1825C60.9575 65.895 59.3525 60.58 57.6 55.3125C56.9475 53.355 57.4025 52.3325 59.445 51.885C62.2375 51.2725 64.74 50.0225 66.9975 48.24C68.925 46.7175 69.9625 47.035 70.9625 49.3125C72.19 52.105 72.545 55.0575 72.545 58.0675V58.07Z" fill="white"/>
<path d="M54.9776 49.2575C51.1226 49.3625 47.8026 48.0675 44.8376 45.7325C43.2951 44.52 43.0701 43.3975 44.5701 41.85C50.5101 35.715 59.3301 35.685 65.3526 41.765C66.9651 43.3925 66.7076 44.555 65.0651 45.82C62.0751 48.12 58.7476 49.3975 54.9801 49.2575H54.9776Z" fill="white"/>
<path d="M55.1 67.7701C56.1075 67.7151 57.0125 67.6776 57.9175 67.6101C59.105 67.5226 59.4625 68.2601 59.67 69.2451C59.88 70.2376 59.5375 70.8176 58.5725 71.1026C56.22 71.7976 53.875 71.7826 51.5175 71.1351C50.4175 70.8326 50.12 70.1751 50.36 69.0926C50.595 68.0351 51.1225 67.5126 52.2425 67.6126C53.2275 67.7001 54.215 67.7226 55.1025 67.7701H55.1Z" fill="white"/>
<path d="M54.9725 65.6825C53.7575 65.4575 51.97 66.045 52.0575 63.9325C52.135 62.07 53.3775 61.625 55.165 61.63C56.9675 61.635 57.9275 62.38 57.94 64.01C57.9575 66.1025 56.15 65.4375 54.975 65.6825H54.9725Z" fill="white"/>
</g>
<defs>
<clipPath id="clip0_4_3">
<rect x="23" y="23" width="64" height="64" rx="26" fill="white"/>
</clipPath>
</defs>
</svg>
