<svg width="110" height="110" viewBox="0 0 110 110" fill="none" xmlns="http://www.w3.org/2000/svg">
<rect width="110" height="110" rx="26" fill="#133A4E"/>
<g clip-path="url(#clip0_2_177)">
<path d="M55 87C72.6731 87 87 72.6731 87 55C87 37.3269 72.6731 23 55 23C37.3269 23 23 37.3269 23 55C23 72.6731 37.3269 87 55 87Z" fill="#3099E1"/>
<path d="M55.0875 74.5599C46.5275 74.5924 41.0525 66.4624 44.1375 58.3649C45.1825 55.6199 46.8325 53.2149 48.3375 50.7424C50.695 46.8674 52.265 42.7149 53.315 38.3349C53.45 37.7724 53.55 37.1899 53.785 36.6699C54.0175 36.1524 54.3175 35.5974 55.04 35.6274C55.7475 35.6574 56 36.2299 56.2575 36.7374C56.4425 37.0999 56.53 37.5174 56.61 37.9199C57.725 43.4499 60.0875 48.4349 63.12 53.1524C65.0625 56.1724 66.735 59.2974 66.6525 63.0899C66.51 69.7099 61.6975 74.5374 55.085 74.5624L55.0875 74.5599Z" fill="white"/>
<path d="M55.2899 71.3776C51.8399 71.1151 48.8974 70.2451 47.0599 67.2451C46.7224 66.6951 46.2774 65.9901 46.6324 65.3851C47.1024 64.5826 47.8149 65.2076 48.3899 65.4051C52.8599 66.9526 57.3149 66.9476 61.7699 65.3376C62.2849 65.1501 62.8524 64.6551 63.3599 65.2301C63.8399 65.7751 63.3724 66.3326 63.1299 66.8276C61.4999 70.1751 58.4149 70.9501 55.2924 71.3751L55.2899 71.3776Z" fill="#3A9DE2"/>
</g>
<defs>
<clipPath id="clip0_2_177">
<rect width="64" height="64" fill="white" transform="translate(23 23)"/>
</clipPath>
</defs>
</svg>
