<svg width="110" height="110" viewBox="0 0 110 110" fill="none" xmlns="http://www.w3.org/2000/svg">
<rect width="110" height="110" rx="26" fill="#3C2D49"/>
<g clip-path="url(#clip0_2_106)">
<path d="M55 87C72.6731 87 87 72.6731 87 55C87 37.3269 72.6731 23 55 23C37.3269 23 23 37.3269 23 55C23 72.6731 37.3269 87 55 87Z" fill="#6F4570"/>
<path d="M68.33 55.295C72.705 54.7325 75.065 56.3726 75.7375 60.2751C75.825 60.7801 75.96 61.2976 75.5 61.6526C75.045 62.0026 74.5075 61.8776 74.1275 61.5201C73.27 60.7176 72.59 60.8076 71.82 61.6826C68.9625 64.9401 68.9475 64.9251 65.4175 62.6C63.61 64.9251 62.0675 67.4826 59.8775 69.5401C56.0675 73.1201 53.895 73.1301 50.0925 69.51C47.9675 67.4851 46.38 65.0576 44.6275 62.6101C44.2925 62.7626 43.97 62.8401 43.735 63.0276C40.965 65.2651 40.6075 65.2425 38.5525 62.2726C37.8 61.1875 37.15 60.3476 35.83 61.5476C35.4425 61.9001 34.905 61.9951 34.465 61.6151C34.0225 61.2326 34.1875 60.725 34.2825 60.225C35.01 56.3426 37.1825 54.8351 41.7525 55.2376C41.3625 49.8351 42.665 45.0401 47.0125 41.4551C49.5625 39.3551 52.4825 38.3726 55.7825 38.5501C63.305 38.9501 67.9925 45.14 68.3325 55.295H68.33Z" fill="white"/>
<path d="M47.3 48.0125C47.2875 47.0725 47.325 46.0825 48.35 45.7C49.375 45.315 50.085 46.0475 50.69 46.74C51.9475 48.18 52.5725 49.8925 52.3375 51.79C52.125 53.505 50.8425 53.9425 49.505 52.8275C48.0125 51.5825 47.34 49.9375 47.3 48.015V48.0125Z" fill="#785279"/>
<path d="M62.6925 48.15C62.6275 49.9775 61.9525 51.5175 60.5875 52.765C60.0625 53.245 59.5075 53.59 58.8075 53.39C57.975 53.15 57.675 52.425 57.63 51.655C57.525 49.845 58.0525 48.2 59.2375 46.8225C59.885 46.0675 60.6425 45.23 61.7725 45.755C62.745 46.2075 62.7225 47.22 62.695 48.1525L62.6925 48.15Z" fill="#785279"/>
</g>
<defs>
<clipPath id="clip0_2_106">
<rect width="64" height="64" fill="white" transform="translate(23 23)"/>
</clipPath>
</defs>
</svg>
