<svg width="110" height="110" viewBox="0 0 110 110" fill="none" xmlns="http://www.w3.org/2000/svg">
<rect width="110" height="110" rx="26" fill="#564328"/>
<g clip-path="url(#clip0_2_161)">
<path d="M55 87C72.6731 87 87 72.6731 87 55C87 37.3269 72.6731 23 55 23C37.3269 23 23 37.3269 23 55C23 72.6731 37.3269 87 55 87Z" fill="#A9A481"/>
<path d="M72.9174 47.5574L68.0124 42.6524L68.8999 48.4974C68.9074 48.5449 68.8499 48.5749 68.8149 48.5399L61.5199 41.2449C61.4849 41.2099 61.5149 41.1524 61.5624 41.1599L67.4074 42.0474L62.4399 37.0799C62.4399 37.0799 62.4174 37.0649 62.4049 37.0649H47.5899C47.5774 37.0649 47.5649 37.0699 47.5549 37.0799L37.0799 47.5549C37.0799 47.5549 37.0649 47.5774 37.0649 47.5899V62.4049C37.0649 62.4174 37.0699 62.4299 37.0799 62.4399L41.9624 67.3224L39.5349 56.0599C39.5249 56.0124 39.5849 55.9799 39.6199 56.0149L54.0624 70.4574C54.0974 70.4924 54.0649 70.5524 54.0174 70.5424L42.7549 68.1149L47.5574 72.9174C47.5574 72.9174 47.5799 72.9324 47.5924 72.9324H62.4074C62.4199 72.9324 62.4324 72.9274 62.4424 72.9174L67.2524 68.1074L55.9674 70.5449C55.9199 70.5549 55.8874 70.4949 55.9224 70.4599L70.3624 56.0199C70.3974 55.9849 70.4574 56.0174 70.4474 56.0649L68.0099 67.3499L72.9199 62.4399C72.9199 62.4399 72.9349 62.4174 72.9349 62.4049V47.5899C72.9349 47.5774 72.9299 47.5649 72.9199 47.5549L72.9174 47.5574Z" fill="white"/>
</g>
<defs>
<clipPath id="clip0_2_161">
<rect width="64" height="64" fill="white" transform="translate(23 23)"/>
</clipPath>
</defs>
</svg>
