<svg width="110" height="110" viewBox="0 0 110 110" fill="none" xmlns="http://www.w3.org/2000/svg">
<rect width="110" height="110" rx="26" fill="#522E2A"/>
<g clip-path="url(#clip0_2_94)">
<path d="M55 87C72.6731 87 87 72.6731 87 55C87 37.3269 72.6731 23 55 23C37.3269 23 23 37.3269 23 55C23 72.6731 37.3269 87 55 87Z" fill="#E4613E"/>
<path d="M48.285 72.1775C43.775 70.935 40.2475 63.87 41.755 58.0675C42.3725 55.6925 43.4375 53.5575 45.0425 51.7125C46.46 50.0825 47.9325 48.4975 49.4025 46.915C53.515 42.485 53.6125 41.455 50.32 36.685C54.485 35.1025 59.2675 38.3875 59.385 42.9025C59.4425 45.1325 58.605 47.1125 57.7475 49.0975C57.0325 50.75 56.7625 52.4025 58.1125 54.4625C58.3075 52.5175 58.175 50.9675 59.4025 49.6825C60.7625 48.2575 61.9 47.78 63.9675 48.2475C61.9675 49.8925 62.225 50.9725 65.5975 55.7275C68.6825 60.08 69.5225 63.815 67.2475 67.8625C64.81 72.2 59.5325 74.8325 54.67 74.105C55 73.5675 55.92 73.1325 56.595 72.735C59.8325 70.8325 60.3225 67.85 57.83 65.0575C57.0025 64.13 56.065 63.2975 55.16 62.44C51.4825 58.9525 51.0775 58.2325 50.13 53.3775C45.1275 56.1175 44.1625 65.065 48.285 72.185V72.1775Z" fill="white"/>
</g>
<defs>
<clipPath id="clip0_2_94">
<rect width="64" height="64" fill="white" transform="translate(23 23)"/>
</clipPath>
</defs>
</svg>
