<svg width="110" height="110" viewBox="0 0 110 110" fill="none" xmlns="http://www.w3.org/2000/svg">
<rect width="110" height="110" rx="26" fill="#133A4E"/>
<g clip-path="url(#clip0_2_167)">
<path d="M55 87C72.6731 87 87 72.6731 87 55C87 37.3269 72.6731 23 55 23C37.3269 23 23 37.3269 23 55C23 72.6731 37.3269 87 55 87Z" fill="#74B0CB"/>
<path d="M52.31 46.3051C52.96 49.6576 53.505 52.4701 54.125 55.6626C48.4425 57.2851 42.955 58.8501 36.705 60.6326C39.165 53.0451 41.37 46.2526 43.6025 39.3701H65.9525C66.19 39.8726 66.485 40.4926 66.9125 41.3926C62.0025 43.0451 57.345 44.6126 52.31 46.3051Z" fill="white"/>
<path d="M73.2 60.6325C69.4725 63.325 66.0775 65.7775 62 68.7225C60.0625 61.8425 58.295 55.565 56.405 48.8475C60.53 47.5325 64.1 46.3925 68.105 45.115C69.845 50.4175 71.48 55.395 73.2 60.6325Z" fill="white"/>
<path d="M58.8674 70.8974C57.5624 71.8924 56.3524 72.8174 54.9249 73.9049C49.9974 70.3124 45.2149 66.8249 39.6274 62.7524C45.1699 61.1499 49.8499 59.7974 54.9074 58.3374C56.2724 62.6674 57.5274 66.6424 58.8699 70.8974H58.8674Z" fill="white"/>
<path d="M47.2625 45.1125C48.3174 45.1125 49.1725 44.2573 49.1725 43.2025C49.1725 42.1476 48.3174 41.2925 47.2625 41.2925C46.2077 41.2925 45.3525 42.1476 45.3525 43.2025C45.3525 44.2573 46.2077 45.1125 47.2625 45.1125Z" fill="#77B2CB"/>
<path d="M63.4174 54.84C64.8548 54.84 66.0199 53.6748 66.0199 52.2375C66.0199 50.8002 64.8548 49.635 63.4174 49.635C61.9801 49.635 60.8149 50.8002 60.8149 52.2375C60.8149 53.6748 61.9801 54.84 63.4174 54.84Z" fill="#77B2CB"/>
</g>
<defs>
<clipPath id="clip0_2_167">
<rect width="64" height="64" fill="white" transform="translate(23 23)"/>
</clipPath>
</defs>
</svg>
