<svg width="110" height="110" viewBox="0 0 110 110" fill="none" xmlns="http://www.w3.org/2000/svg">
<rect width="110" height="110" rx="26" fill="#253D30"/>
<path d="M55 87C72.6731 87 87 72.6731 87 55C87 37.3269 72.6731 23 55 23C37.3269 23 23 37.3269 23 55C23 72.6731 37.3269 87 55 87Z" fill="#439837"/>
<path d="M71.5749 44.53C72.1249 43.9975 72.0149 45.58 71.9549 46.0675C70.9374 54.22 69.7124 62.3375 67.9174 70.3575C67.4374 72.51 67.0849 72.785 64.8924 72.8175C62.4724 72.8525 60.0549 72.8325 57.6549 72.8275C57.2299 72.8275 56.9424 72.395 57.1049 72.0025C61.0899 62.475 66.4399 49.495 71.5749 44.53Z" fill="white"/>
<path d="M53.3675 68.1599C53.16 62.2249 53.88 58.8699 54.62 50.9949C54.65 50.6649 54.7675 50.3524 54.9075 50.0524C55.79 48.1824 59.2425 40.9924 61.2475 38.5099C61.6675 37.9899 62.5 38.2724 62.5425 38.9374C62.57 39.3824 62.5525 39.7974 62.535 40.2424C62.3125 45.3199 61.7125 50.3649 60.9875 55.3924C60.8475 56.3574 60.4325 57.3124 59.995 58.1999C58.5625 61.1049 60.265 57.6299 55.555 66.8424C55.2575 67.4274 55.025 68.1674 54.4725 68.5874C54.0225 68.9299 53.3875 68.7249 53.3675 68.1624V68.1599Z" fill="white"/>
<path d="M52.205 44.53C52.755 43.9975 52.645 45.58 52.585 46.0675C51.5675 54.22 50.3425 62.3375 48.5475 70.3575C48.0675 72.51 47.715 72.785 45.5225 72.8175C43.1025 72.8525 40.685 72.8325 38.285 72.8275C37.86 72.8275 37.5725 72.395 37.735 72.0025C41.72 62.475 47.07 49.495 52.205 44.53Z" fill="white"/>
</svg>
