<svg width="110" height="110" viewBox="0 0 110 110" fill="none" xmlns="http://www.w3.org/2000/svg">
<rect width="110" height="110" rx="26" fill="#4E2C3C"/>
<g clip-path="url(#clip0_2_76)">
<path d="M55 87C72.6731 87 87 72.6731 87 55C87 37.3269 72.6731 23 55 23C37.3269 23 23 37.3269 23 55C23 72.6731 37.3269 87 55 87Z" fill="#E18CE1"/>
<path d="M65.135 56.1525C66.0775 57.8375 67.065 59.29 67.4275 61.0275C67.9825 63.6825 67.125 64.7275 64.44 64.9625C62.6525 65.12 61.8825 65.1075 58.4425 63.3875C58.2625 66.5575 61.0475 70.0225 60.3325 73.42C60.2575 73.775 59.805 73.89 59.5575 73.6225C56.8775 70.73 56.7025 66.8825 55 63.49C53.3525 66.8525 53.0675 70.6525 50.505 73.6675C50.27 73.9425 49.8125 73.845 49.7275 73.4925C48.9 70.0875 51.71 66.7875 51.6475 63.645C50.4425 64.635 47.6475 65.0875 45.9625 64.98C42.815 64.78 41.97 63.73 42.6625 60.6875C43.0375 59.0325 44.155 57.76 44.805 56.1125C42.8125 54.8275 40.795 53.7625 39.39 51.765C36.79 48.075 36.67 43.995 37.0975 39.8225C37.265 38.1825 38.7375 37.6175 40.2675 37.5725C45.875 37.41 50.845 38.7125 54.175 43.725C54.29 43.8983 54.5492 44.3442 54.9525 45.0625C55.3625 44.4375 55.6275 44.0325 55.7475 43.8475C59.0275 38.8075 63.97 37.4075 69.59 37.5725C72.05 37.645 72.9075 38.66 73.055 41.1625C73.3025 45.3425 72.71 49.235 69.9575 52.645C68.695 54.2075 66.9025 54.89 65.1375 56.15L65.135 56.1525Z" fill="white"/>
<path d="M55.0025 47.345C55.86 49.9675 58 52.0525 60.94 52.0675C59.915 54.7475 57.8925 55.5925 55.64 55.795C52.9175 56.04 50.6175 55.095 48.955 52.29C51.71 51.9 53.965 50.0525 55 47.3425L55.0025 47.345Z" fill="#E291E2"/>
</g>
<defs>
<clipPath id="clip0_2_76">
<rect width="64" height="64" fill="white" transform="translate(23 23)"/>
</clipPath>
</defs>
</svg>
