<svg width="110" height="110" viewBox="0 0 110 110" fill="none" xmlns="http://www.w3.org/2000/svg">
<rect width="110" height="110" rx="26" fill="#3C2D49"/>
<g clip-path="url(#clip0_2_145)">
<path d="M55 87C72.6731 87 87 72.6731 87 55C87 37.3269 72.6731 23 55 23C37.3269 23 23 37.3269 23 55C23 72.6731 37.3269 87 55 87Z" fill="#9354CB"/>
<path d="M55 87C72.6731 87 87 72.6731 87 55C87 37.3269 72.6731 23 55 23C37.3269 23 23 37.3269 23 55C23 72.6731 37.3269 87 55 87Z" fill="#9354CB"/>
<path d="M62.8425 58C65.162 58 67.0425 56.1196 67.0425 53.8C67.0425 51.4804 65.162 49.6 62.8425 49.6C60.5229 49.6 58.6425 51.4804 58.6425 53.8C58.6425 56.1196 60.5229 58 62.8425 58Z" fill="white"/>
<path d="M48.6125 51.7C52.5061 51.7 55.6625 48.5436 55.6625 44.65C55.6625 40.7564 52.5061 37.6 48.6125 37.6C44.7189 37.6 41.5625 40.7564 41.5625 44.65C41.5625 48.5436 44.7189 51.7 48.6125 51.7Z" fill="white"/>
<path d="M72.3624 70.8875C72.9524 70.5125 73.1424 70.1175 73.1824 69.66C73.195 69.565 73.2024 69.4675 73.2024 69.365C73.2024 69.2975 73.195 69.235 73.1875 69.175C73.1474 68.5 72.8725 68.04 71.13 67.4725C70.8274 67.375 70.4949 67.2775 70.1375 67.18C68.1625 66.5875 66.2474 66.235 64.0774 66.0475C63.2199 65.9375 62.3299 65.8375 61.4199 65.7525C60.9924 65.6225 60.8425 65.4325 60.74 65.1425C60.6025 64.405 60.3275 63.7175 59.9425 63.105C58.995 61.4825 57.4825 60.5425 55.4874 60.4C55.365 60.39 55.2425 60.3825 55.1175 60.38C55.1075 60.38 55.0975 60.38 55.0875 60.38C55.08 60.38 55.075 60.38 55.0675 60.38C55.045 60.38 55.0224 60.38 55 60.38C54.9325 60.38 54.8674 60.3825 54.7999 60.385C52.49 60.4275 50.755 61.545 49.8025 63.56C49.6475 63.865 49.515 64.1825 49.415 64.515C49.1825 65.1325 49.0175 65.5075 48.5075 65.73C47.2775 65.835 46.095 65.9675 44.9825 66.1225C43.9125 66.2375 42.855 66.425 41.8075 66.665C40.4325 66.95 39.265 67.2725 38.375 67.615C38.2424 67.6625 38.1149 67.715 37.9899 67.7725C36.9249 68.2475 36.8324 68.69 36.8249 69.2425C36.8199 69.3075 36.8124 69.3725 36.8149 69.4425C36.8149 69.4825 36.8224 69.52 36.8249 69.56C36.8399 70.1925 37.0049 70.7 38.2524 71.22C38.4874 71.3225 38.735 71.41 38.9875 71.49C39.4 71.6275 39.8575 71.76 40.3575 71.8875C42.4725 72.46 44.6125 72.78 46.7625 72.98C49.3175 73.2625 52.1425 73.4275 54.9799 73.43C54.9799 73.43 54.9799 73.43 54.9825 73.43C54.99 73.43 54.9975 73.43 55.005 73.43C57.6225 73.43 60.2524 73.2825 62.6674 73.0325C65.205 72.8225 67.7175 72.4575 70.1875 71.7375C70.3025 71.705 70.415 71.6725 70.525 71.64C70.5475 71.6325 70.5675 71.6275 70.59 71.62C71.1624 71.4425 71.7874 71.2475 72.2799 70.9375C72.2999 70.925 72.32 70.9125 72.3424 70.9C72.3475 70.895 72.3549 70.8925 72.36 70.8875H72.3624Z" fill="white"/>
</g>
<defs>
<clipPath id="clip0_2_145">
<rect width="64" height="64" fill="white" transform="translate(23 23)"/>
</clipPath>
</defs>
</svg>
