<svg width="110" height="110" viewBox="0 0 110 110" fill="none" xmlns="http://www.w3.org/2000/svg">
<rect width="110" height="110" rx="26" fill="#2F2F2F"/>
<g clip-path="url(#clip0_2_138)">
<path d="M55 87C72.6731 87 87 72.6731 87 55C87 37.3269 72.6731 23 55 23C37.3269 23 23 37.3269 23 55C23 72.6731 37.3269 87 55 87Z" fill="#828282"/>
<path d="M55.44 74.0225C42.3975 74.055 33.785 61.77 38.1775 49.915C38.5725 48.85 38.6925 47.87 38.2525 46.78C37.165 44.09 37.725 41.6925 39.8525 39.7475C42.0025 37.7825 44.515 37.6075 47.035 38.8575C48.0625 39.3675 48.9475 39.2975 49.905 39.025C53.2675 38.065 56.6275 38.06 59.9825 39.0025C61.235 39.355 62.305 39.2275 63.56 38.6925C66.0075 37.6525 68.4575 37.855 70.495 39.8525C72.58 41.895 72.975 44.3075 71.865 46.935C71.44 47.94 71.4 48.835 71.7925 49.815C75.155 58.195 71.425 67.725 63.455 72C60.8375 73.405 58.025 74.0525 55.4425 74.02L55.44 74.0225Z" fill="white"/>
<path d="M42.3201 56.29C41.9851 49.725 47.8026 43.4925 54.8801 43.5175C61.9701 43.54 67.5176 49.0225 67.7176 56.05C67.8876 62.0625 62.8976 68.73 55.1201 68.84C48.1351 68.94 42.3526 63.2725 42.3201 56.29Z" fill="#828282"/>
</g>
<defs>
<clipPath id="clip0_2_138">
<rect width="64" height="64" fill="white" transform="translate(23 23)"/>
</clipPath>
</defs>
</svg>
