<svg width="110" height="110" viewBox="0 0 110 110" fill="none" xmlns="http://www.w3.org/2000/svg">
<rect width="110" height="110" rx="26" fill="#5C3B23"/>
<g clip-path="url(#clip0_2_83)">
<path d="M55 87C72.6731 87 87 72.6731 87 55C87 37.3269 72.6731 23 55 23C37.3269 23 23 37.3269 23 55C23 72.6731 37.3269 87 55 87Z" fill="#E49021"/>
<path d="M69.8426 61.865C69.9801 61.91 70.0801 62.0425 70.0951 62.1875C70.5301 66.365 70.0651 67.0775 66.3326 68.5075C61.7526 70.26 57.0601 71.625 52.2626 72.66C50.6401 73.01 49.0576 72.9675 47.6251 72.27C45.2376 71.105 43.0176 69.625 40.9276 67.975C40.2026 67.4025 39.8401 66.6625 39.8151 65.745C39.7751 64.255 39.8951 62.76 39.8151 61.27C39.7426 59.945 40.2401 59.205 41.5676 59.2075C45.0626 59.2125 48.5576 59.2075 52.0526 59.225C52.7351 59.2275 53.4751 59.3225 53.5951 60.165C53.8076 61.6825 54.8851 61.665 56.0051 61.665C59.7501 61.66 63.4951 61.66 67.2401 61.675C68.0751 61.6775 68.9251 61.575 69.8401 61.8675L69.8426 61.865Z" fill="white"/>
<path d="M39.6976 47.2499C39.6976 45.3374 39.6551 43.4224 39.7101 41.5099C39.7676 39.4474 40.0326 39.2199 42.0326 39.1374C45.1201 39.0074 45.4201 39.2924 45.4251 42.4474C45.4326 46.0249 45.4526 49.6024 45.4126 53.1774C45.3876 55.3274 44.8776 55.7799 42.7351 55.8249C40.4176 55.8699 39.7801 55.3674 39.7151 53.2399C39.6551 51.2449 39.7026 49.2474 39.7026 47.2499C39.7026 47.2499 39.7001 47.2499 39.6976 47.2499Z" fill="white"/>
<path d="M63.7249 59.6375C62.0624 59.6375 60.3974 59.6275 58.7349 59.64C57.2049 59.6525 56.4149 58.9025 56.3749 57.38C56.3524 56.55 56.3174 55.715 56.3749 54.8875C56.4649 53.54 57.1624 52.705 58.5774 52.6975C61.9874 52.6775 65.3974 52.7 68.8049 52.6875C69.86 52.6825 70.1999 53.2075 70.3124 54.2125C70.8924 59.3925 70.6824 59.655 65.4724 59.655C64.8899 59.655 64.3074 59.655 63.7249 59.655C63.7249 59.65 63.7249 59.6425 63.7249 59.6375Z" fill="white"/>
<path d="M53.6974 47.5375C53.6974 49.5325 53.7599 51.5275 53.6799 53.52C53.6049 55.3625 52.9949 55.805 50.8974 55.8225C48.7224 55.84 48.0599 55.4475 48.0224 53.6275C47.9324 49.475 47.9999 45.32 47.9849 41.165C47.9799 39.67 48.7374 39.0625 50.1649 39.1375C50.4974 39.155 50.8299 39.1275 51.1624 39.1375C53.3749 39.19 53.6399 39.4075 53.6949 41.555C53.7449 43.5475 53.7049 45.5425 53.7049 47.5375C53.7049 47.5375 53.6999 47.5375 53.6974 47.5375Z" fill="white"/>
<path d="M70.3 44.9425C70.3 46.3525 70.3 47.76 70.3 49.17C70.3 50.1825 69.825 50.715 68.7725 50.6525C68.6075 50.6425 68.44 50.6525 68.275 50.66C65.8 50.7617 64.5617 49.5883 64.56 47.14C64.56 45.315 64.535 43.49 64.57 41.6675C64.6125 39.4 64.885 39.1575 67.2125 39.1175C67.6275 39.11 68.0425 39.135 68.455 39.13C69.69 39.1175 70.2875 39.7525 70.2975 40.96C70.3075 42.2875 70.2975 43.6125 70.2975 44.94L70.3 44.9425Z" fill="white"/>
<path d="M62.025 45.0225C62.025 46.355 62 47.6875 62.0325 49.02C62.0625 50.19 61.52 50.64 60.3725 50.6475C55.545 50.6775 56.3575 50.8025 56.2875 46.955C56.2525 45.04 56.315 43.1225 56.295 41.2075C56.28 39.7325 56.985 39.0675 58.4425 39.135C59.025 39.1625 59.6075 39.15 60.19 39.1475C61.4475 39.145 61.9975 39.8275 62.005 41.0225C62.0125 42.355 62.005 43.6875 62.005 45.02H62.02L62.025 45.0225Z" fill="white"/>
</g>
<defs>
<clipPath id="clip0_2_83">
<rect width="64" height="64" fill="white" transform="translate(23 23)"/>
</clipPath>
</defs>
</svg>
