<svg width="110" height="110" viewBox="0 0 110 110" fill="none" xmlns="http://www.w3.org/2000/svg">
<rect width="110" height="110" rx="26" fill="#133A4E"/>
<g clip-path="url(#clip0_2_100)">
<path d="M55 87C72.6731 87 87 72.6731 87 55C87 37.3269 72.6731 23 55 23C37.3269 23 23 37.3269 23 55C23 72.6731 37.3269 87 55 87Z" fill="#74AAD0"/>
<path d="M60.945 60.1075C57.015 64.7725 51.765 64.7425 46.74 65.23C46.52 65.2525 46.31 65.345 46.15 65.5025C43.5825 68.025 42.19 71.535 39.15 73.9125C39.0125 74.02 38.8025 73.9625 38.7425 73.8C38.18 72.2775 38.35 70.95 38.54 69.7025C39.605 62.6975 41.3225 55.8525 44.01 49.2875C45.4675 45.73 47.7925 43.16 51.9075 42.4875C57.9975 41.4925 63.74 39.23 69.5525 37.245C70.2925 36.9925 71.065 36.755 71.835 37.055C72.0775 37.15 72.27 37.35 72.34 37.6C72.5675 38.4125 72.11 39.0725 71.705 39.77C68.33 45.61 63.1425 49.1475 56.975 51.4725C56.09 51.805 55 52.175 54.2475 52.875C54.1675 52.95 54.2275 53.09 54.335 53.095C58.705 53.28 62.525 51.67 66.54 50.785C66.6775 50.755 66.8 50.8975 66.75 51.03C64.9875 55.515 60.8025 57.7775 56.775 59.0675C55.2 59.5725 54.4375 59.6825 51.6925 59.9325C51.6 59.94 51.59 60.055 51.665 60.075C55.6325 61.075 57.11 59.9375 60.75 59.6875C60.9575 59.6725 61.075 59.9425 60.9425 60.1025L60.945 60.1075Z" fill="white"/>
</g>
<defs>
<clipPath id="clip0_2_100">
<rect width="64" height="64" fill="white" transform="translate(23 23)"/>
</clipPath>
</defs>
</svg>
