<svg width="110" height="110" viewBox="0 0 110 110" fill="none" xmlns="http://www.w3.org/2000/svg">
<rect width="110" height="110" rx="26" fill="#2F2F2F"/>
<g clip-path="url(#clip0_2_55)">
<path d="M55 87C72.6731 87 87 72.6731 87 55C87 37.3269 72.6731 23 55 23C37.3269 23 23 37.3269 23 55C23 72.6731 37.3269 87 55 87Z" fill="#4F4747"/>
<path d="M41.615 44.06C43.4875 45.95 46.0525 47.7975 48.375 48.2925C48.03 49.0025 47.905 49.56 47.7825 50.35C47.0875 54.805 47.485 59.0075 50.82 62.425C53.335 65.0025 56.6825 64.995 59.1975 62.4025C62.52 58.975 62.925 54.775 62.2 50.32C62.0925 49.665 61.7175 48.0325 61.73 48.01C61.755 47.965 61.73 47.99 61.98 47.915C63.6 47.5375 66.635 45.9175 68.4925 44.04C72.3325 47.01 74.405 53.2675 72.0375 58.2525C68.8025 65.0625 61.2475 71.1925 51.68 69.2425C44.3925 67.7575 39.42 63.12 37.1925 55.94C36.1575 52.6075 37.61 46.945 41.6175 44.06H41.615Z" fill="white"/>
<path d="M57.98 54.095C57.9125 55.42 57.7825 57.2475 56.4675 58.7075C55.4375 59.85 54.4775 59.915 53.5525 58.7C51.695 56.2625 51.6875 53.4775 52.4325 50.6525C52.9225 48.7975 53.1475 48.6775 54.9975 48.6775C56.85 48.6775 56.99 48.8225 57.5925 50.64C57.9125 51.61 57.9875 52.585 57.9825 54.0975L57.98 54.095Z" fill="white"/>
</g>
<defs>
<clipPath id="clip0_2_55">
<rect width="64" height="64" fill="white" transform="translate(23 23)"/>
</clipPath>
</defs>
</svg>
