<svg width="110" height="110" viewBox="0 0 110 110" fill="none" xmlns="http://www.w3.org/2000/svg">
<rect width="110" height="110" rx="26" fill="#564328"/>
<g clip-path="url(#clip0_2_70)">
<path d="M55 87C72.6731 87 87 72.6731 87 55C87 37.3269 72.6731 23 55 23C37.3269 23 23 37.3269 23 55C23 72.6731 37.3269 87 55 87Z" fill="#DFBC28"/>
<path d="M51.235 74.4675C50.1475 74.2 50.4625 73.415 50.6325 72.86C51.4025 70.3225 52.185 67.785 53.0875 65.29C53.67 63.6775 53.5775 62.5525 51.9725 61.49C49.2725 59.7025 46.7725 57.62 44.1325 55.74C42.48 54.5625 42.1525 53.2325 43.1825 51.485C46.0925 46.55 48.9875 41.6125 52.3525 36.96C53.64 35.18 54.92 34.9325 56.765 36.0775C59.72 37.9125 62.7425 39.64 65.775 41.345C67.5475 42.3425 67.6725 43.3825 66.29 44.86C64.2425 47.045 62.385 49.41 60.285 51.5425C58.9775 52.87 59.2525 53.7325 60.52 54.775C62.1225 56.095 63.65 57.51 65.205 58.89C66.125 59.7075 66.215 60.53 65.265 61.4225C60.84 65.5825 56.4275 69.755 52.005 73.9175C51.77 74.14 51.475 74.3 51.235 74.47V74.4675Z" fill="white"/>
</g>
<defs>
<clipPath id="clip0_2_70">
<rect width="64" height="64" fill="white" transform="translate(23 23)"/>
</clipPath>
</defs>
</svg>
