<svg width="110" height="110" viewBox="0 0 110 110" fill="none" xmlns="http://www.w3.org/2000/svg">
<rect width="110" height="110" rx="26" fill="#4E2C3C"/>
<g clip-path="url(#clip0_2_154)">
<path d="M55 87C72.6731 87 87 72.6731 87 55C87 37.3269 72.6731 23 55 23C37.3269 23 23 37.3269 23 55C23 72.6731 37.3269 87 55 87Z" fill="#E96C8C"/>
<path d="M72.3625 47.935C72.435 49.2475 71.86 50.3725 71.265 51.4675C70.015 53.77 70.035 56.015 71.1725 58.3825C73.73 63.7075 72.0775 66.735 66.275 67.275C63.485 67.535 61.47 68.6875 59.9225 71.0525C56.995 75.5275 52.995 75.495 50.0325 70.99C48.5375 68.7175 46.5925 67.5575 43.895 67.2925C37.8775 66.7025 36.26 63.795 38.86 58.3125C39.94 56.0325 39.915 53.8875 38.825 51.615C36.2725 46.2875 37.92 43.2625 43.7225 42.7225C46.51 42.4625 48.53 41.31 50.075 38.945C52.9475 34.55 57.0325 34.46 59.8125 38.81C61.585 41.5825 63.995 42.5775 67.095 42.8175C70.57 43.0875 72.3875 45.005 72.36 47.9375L72.3625 47.935Z" fill="white"/>
<path d="M66.6425 61.665C61.4475 62.12 57.78 64.155 55.05 68.39C52.1625 64.2225 48.55 62.0875 43.625 61.6875C45.3725 57.22 45.8125 52.9475 43.4125 48.4375C48.3875 47.855 52.155 45.8475 55.0125 41.6975C57.8375 45.7725 61.4475 47.9075 66.3725 48.3075C64.6375 52.7775 64.18 57.0475 66.6425 61.6625V61.665Z" fill="#E96C8D"/>
</g>
<defs>
<clipPath id="clip0_2_154">
<rect width="64" height="64" fill="white" transform="translate(23 23)"/>
</clipPath>
</defs>
</svg>
