<svg width="110" height="110" viewBox="0 0 110 110" fill="none" xmlns="http://www.w3.org/2000/svg">
<rect width="110" height="110" rx="26" fill="#133A4E"/>
<g clip-path="url(#clip0_2_61)">
<path d="M55 87C72.6731 87 87 72.6731 87 55C87 37.3269 72.6731 23 55 23C37.3269 23 23 37.3269 23 55C23 72.6731 37.3269 87 55 87Z" fill="#576FBC"/>
<path d="M65.7325 54.1025C65.9325 57.905 64.47 61.12 61.9925 63.84C60.7775 65.175 60.21 66.545 60.24 68.3025C60.2575 69.3775 60.08 70.46 59.9375 71.53C59.5675 74.3225 57.945 75.6675 54.99 75.6625C52.0375 75.6575 50.44 74.3175 50.0525 71.515C50.0075 71.185 49.945 70.8525 49.9475 70.5225C49.965 67.445 49.105 64.8525 46.965 62.415C43.4025 58.36 43.325 51.09 46.3 47.2925C47.755 45.4375 47.4625 43.0075 48.1875 40.8975C48.78 39.1725 49.1925 37.385 49.705 35.6325C49.825 35.22 50.0825 34.8675 50.575 34.8825C51.08 34.8975 51.2525 35.2825 51.3525 35.7075C51.8025 37.65 52.365 39.575 52.66 41.54C52.8975 43.1175 53.895 43.0275 55.0075 43.0325C56.1325 43.0375 57.1125 43.095 57.345 41.525C57.6225 39.6425 58.175 37.8 58.6025 35.94C58.715 35.45 58.7875 34.8925 59.4375 34.8925C60.045 34.8925 60.225 35.39 60.365 35.8925C60.835 37.5725 61.335 39.2425 61.79 40.9275C62.5425 43.71 62.845 46.6125 64.6875 49.055C65.765 50.4825 65.6825 52.36 65.7325 54.1075V54.1025Z" fill="white"/>
<path d="M71.55 46.9825C75.745 51.325 76.2675 63.115 69.495 68.355C68.0375 66.7675 67.385 64.6625 66.115 62.96C65.9525 62.7425 65.93 62.24 66.07 62.005C67.4225 59.755 67.3075 56.89 69.31 54.87C71.27 52.89 71.6575 50.2175 71.5525 46.9825H71.55Z" fill="white"/>
<path d="M58.3676 61.4875C60.0201 58.8125 61.4476 56.505 63.0226 53.9575C64.4626 58.555 62.9376 61.1575 58.3676 61.4875Z" fill="#576FBC"/>
<path d="M38.42 46.9825C34.225 51.325 33.7025 63.115 40.475 68.355C41.9325 66.7675 42.585 64.6625 43.855 62.96C44.0175 62.7425 44.04 62.24 43.9 62.005C42.5475 59.755 42.6625 56.89 40.66 54.87C38.7 52.89 38.3125 50.2175 38.4175 46.9825H38.42Z" fill="white"/>
<path d="M51.865 61.4875C50.2125 58.8125 48.785 56.505 47.21 53.9575C45.77 58.555 47.295 61.1575 51.865 61.4875Z" fill="#576FBC"/>
</g>
<defs>
<clipPath id="clip0_2_61">
<rect width="64" height="64" fill="white" transform="translate(23 23)"/>
</clipPath>
</defs>
</svg>
